<svg xmlns="http://www.w3.org/2000/svg" viewBox="0 0 64 64">
    <style>
        @media ( prefers-color-scheme: dark ) {
            path:first-of-type { fill: #fff }
        }
    </style>
    <path d="M25.7,44.7h12.6c0.8,0,1.4,0.7,1.4,1.4l0,0c0,0.8-0.7,1.4-1.4,1.4H25.7c-0.8,0-1.4-0.7-1.4-1.4l0,0C24.2,45.4,24.9,44.7,25.7,44.7L25.7,44.7z M35.3,42.8c0.3-4.6,1.9-6.9,4-8.8c3.1-2.9,4.6-5.3,4.7-10.3c0.4-1.8,0.6-3.6,0.6-5.5c0-0.5,0-1-0.1-1.5c1.2,0.7,2.2,1.7,2.8,2.9c1.8,3.7,1.6,7.4-0.5,10.8c-3.1,5.1-9.2,4.3-9.8,12.3C36.8,44.2,35.2,44.2,35.3,42.8L35.3,42.8z M32,64c5.2,0,9.4-4.2,9.4-9.4c0-2.4-0.9-4.6-2.4-6.2c-0.2,0.1-0.5,0.1-0.7,0.1H32h-6.3c-0.3,0-0.5,0-0.7-0.1c-1.5,1.7-2.4,3.8-2.4,6.2C22.6,59.8,26.8,64,32,64L32,64z M36.7,54.6c0,2.6-2.1,4.7-4.7,4.7s-4.7-2.1-4.7-4.7c0-2.6,2.1-4.7,4.7-4.7S36.7,52,36.7,54.6L36.7,54.6z M28.7,42.8c-0.2-6.3-1.5-8.2-5.3-12.9c-2.5-3.1-4.1-6.9-1.8-11.5c-3.2,1.7-4.8,4.5-5,7.4c-0.2,4.2,2.3,6.7,5.4,9c2.4,1.8,4.8,3.4,5.1,8C27.1,44.2,28.8,44.1,28.7,42.8L28.7,42.8z M31.4,42.6c-0.1-5-0.8-9.4-2.1-14.2c-0.8-3.1-1.5-5.6-1.7-8.9c-0.2-3.2,0.7-7,2.3-10.2c0-1,0-1.9-0.2-2.8c-4.3,1.8-7.1,6.7-7.3,11.6c-0.3,11.4,6.9,11.7,7.3,24.5C29.9,44.2,31.5,44.1,31.4,42.6L31.4,42.6z M32.7,42.8c0.1-3.7,1.1-7.2,2.2-10.7c1.4-4.1,3.2-8.1,3.4-12.4c0.1-1.1,0-2.2-0.2-3.3c0.5-2.7,0.4-6.1-0.3-8.8c3.4,2.2,5.7,6.5,5.7,10.7c0,13.4-8.7,14-9.2,24.6C34.3,44,32.7,44.2,32.7,42.8L32.7,42.8z M21.3,49.1c-1.4-0.2-2.5-1.4-2.6-2.8c-0.1-1.4,0.7-2.7,2-3.2c1.2-0.4,2.1-0.2,2.9,0.4c0.8,0.5,1.5,0.3,1.2-0.7c-0.5-1.7-1.8-3-3.5-3.5c-2-0.6-4.2,0.3-5.4,1.9c-1.3,1.6-1.6,4.2-0.3,6C16.8,49.1,19.2,49.9,21.3,49.1L21.3,49.1z M26.1,43.4c0.4-6.6-7.3-10.5-12.7-6.2c-3.1,2.4-3.9,7.2-0.7,10.6c1.3,1.4,3.2,2.2,5.1,2.2c-1.2-0.4-2.2-1.2-2.9-2.2c-1.4-2.1-1.2-5.2,0.3-7.2c1.5-1.9,4.1-2.8,6.4-2.2c2.3,0.6,4,2.6,4.4,5C25.9,43.5,26.1,43.6,26.1,43.4L26.1,43.4z M36.1,25.2c-0.1-4.1,0.6-6.5,1.1-9.8c1.2-7.2-1.5-15.3-10-15.3c3.5,2.5,4.1,6.9,3.5,10.8c-0.4,2.5-1.1,4.7-1.6,7.1c-0.4,2-0.4,3.1,0,5.2c0.4,2,1,4.1,1.7,6.7c0.1,0.5,0.7,0.7,0.7-0.1c-0.2-4.5,0.4-8.1,1-10.8c0.2-0.7,0.9-0.5,0.8,0.2c-0.7,4.7-0.7,8-0.2,12.6c0.1,0.6,0.5,0.8,0.6,0.3C34.6,29.1,35.5,27.1,36.1,25.2L36.1,25.2z M42.7,49.1c1.4-0.2,2.5-1.4,2.6-2.8c0.1-1.4-0.7-2.7-2-3.2c-1.2-0.4-2.1-0.2-2.9,0.4c-0.8,0.5-1.5,0.3-1.2-0.7c0.5-1.7,1.8-3,3.5-3.5c2-0.6,4.2,0.3,5.4,1.9c1.3,1.6,1.6,4.2,0.3,6C47.2,49.1,44.8,49.9,42.7,49.1L42.7,49.1z M37.9,43.4c-0.4-6.6,7.3-10.5,12.7-6.2c3.1,2.4,3.9,7.2,0.7,10.6c-1.3,1.4-3.2,2.2-5.1,2.2c1.2-0.4,2.2-1.2,2.9-2.2c1.4-2.1,1.2-5.2-0.3-7.2c-1.5-1.9-4.1-2.8-6.4-2.2c-2.3,0.6-4,2.6-4.4,5C38.1,43.5,37.9,43.6,37.9,43.4L37.9,43.4z"/>
</svg>