<svg xmlns="http://www.w3.org/2000/svg" viewBox="0 0 112 112"><path fill="#00703C" d="M33.2,51.2L47,65l31.8-31.8l8.5,8.5L47,82L24.8,59.7L33.2,51.2L33.2,51.2z M16.4,16.4C26.5,6.3,40.5,0,56,0c15.5,0,29.5,6.3,39.6,16.4C105.7,26.5,112,40.5,112,56c0,15.5-6.3,29.5-16.4,39.6C85.5,105.7,71.5,112,56,112c-15.5,0-29.5-6.3-39.6-16.4C6.3,85.5,0,71.5,0,56C0,40.5,6.3,26.5,16.4,16.4L16.4,16.4z M24.9,24.9C16.6,33.2,12,44.3,12,56s4.6,22.8,12.9,31.1C33.2,95.4,44.3,100,56,100c11.7,0,22.8-4.6,31.1-12.9C95.4,78.8,100,67.7,100,56s-4.6-22.8-12.9-31.1C78.8,16.6,67.7,12,56,12C44.3,12,33.2,16.6,24.9,24.9L24.9,24.9z"/></svg>