<svg xmlns="http://www.w3.org/2000/svg" viewBox="0 0 78 78"><path fill="#C20000" d="M23,57h10v-5.7c-4.8-1.1-9-3.6-12.4-6.9l0,0C15.9,39.7,13,33.2,13,26c0-7.2,2.9-13.7,7.6-18.4C25.3,2.9,31.8,0,39,0c7.2,0,13.6,2.9,18.4,7.6l0,0C62.1,12.4,65,18.8,65,26c0,7.2-2.9,13.7-7.6,18.4c-3.4,3.4-7.6,5.8-12.4,6.9V57h10v12H45v9H33v-9H23V57L23,57z M48.9,16.1c-2.5-2.5-6-4.1-9.9-4.1c-3.9,0-7.4,1.6-9.9,4.1c-2.5,2.5-4.1,6-4.1,9.9c0,3.9,1.6,7.4,4.1,9.9c2.5,2.5,6,4.1,9.9,4.1c3.9,0,7.4-1.6,9.9-4.1c2.5-2.5,4.1-6,4.1-9.9C53,22.1,51.4,18.6,48.9,16.1L48.9,16.1L48.9,16.1z"/></svg>