<svg xmlns="http://www.w3.org/2000/svg" viewBox="0 0 300 160"><path fill="#2B2B00" d="M169.1,74.6c-1.4,0.2-2.8,0.2-4.2-0.3c-0.6-0.2-1-0.8-1-1.5c0.1-0.7,0.6-1.2,1.2-1.3c1.3-0.2,2.3-1.3,2.5-2.7c0.1-1.4-0.7-2.6-1.9-3.1c-1.2-0.4-1.9-0.2-2.9,0.4c-0.3,0.2-0.6,0.3-0.8,0.4c0.4,0.6,0.6,1.3,0.6,2.1c0,1-0.4,1.9-1.1,2.6c2.2,2.7,3.4,6.1,3.4,9.7c0,8.4-6.7,15.2-14.9,15.2c-8.2,0-14.9-6.8-14.9-15.2c0-3.6,1.2-7,3.4-9.7c-0.7-0.7-1.1-1.6-1.1-2.6c0-0.8,0.2-1.5,0.6-2.1c-0.3-0.1-0.6-0.2-0.8-0.4c-1-0.7-1.7-0.8-2.9-0.4c-1.3,0.5-2.1,1.7-1.9,3.1c0.1,1.4,1.1,2.5,2.5,2.7c0.7,0.1,1.2,0.7,1.2,1.3c0.1,0.7-0.3,1.3-1,1.5c-1.4,0.5-2.8,0.6-4.2,0.3c-0.2,0.6-0.8,1-1.4,1c-3.2,0-6.2-1.3-8.3-3.7c-4.7-5.2-4.2-13.2,1.2-17.6c3-2.4,6.8-3.3,10.3-2.7c-3.9-3.3-6.6-7.1-6.3-12.7c0.3-5.3,3.4-9.6,7.9-12c0.2-0.1,0.4-0.2,0.6-0.2c0.6-7,4.8-14.3,11.3-17.1c0.1-0.1,0.2-0.1,0.4-0.1c-0.6-2.7-1.9-5.1-4.3-6.9c-0.5-0.4-0.7-1-0.5-1.7c0.2-0.6,0.8-1,1.4-1c4.4,0,8.4,1.5,11.4,4.9c1.6,1.8,2.7,3.9,3.5,6.1c0.4-0.1,0.8,0,1.1,0.2c4.4,2.9,7.4,7.9,8.4,13.2c0.3,0,0.6,0,0.8,0.2c2,1.1,3.7,2.8,4.7,4.9c2.8,5.8,2.5,11.7-0.8,17.2c-1.2,2-2.8,3.6-4.7,5c0,0,0,0,0,0c3.4-0.5,7,0.4,10,2.8c5.5,4.4,5.9,12.4,1.2,17.6c-2.1,2.4-5.2,3.6-8.3,3.7C169.8,75.7,169.3,75.3,169.1,74.6L169.1,74.6z M155.3,80.8c0-3-2.4-5.4-5.3-5.4c-2.9,0-5.3,2.4-5.3,5.4c0,3,2.4,5.3,5.3,5.3C152.9,86.2,155.3,83.8,155.3,80.8L155.3,80.8z"/><path fill="#996633" d="M141,66.5h18c1.1,0,2.1,0.9,2.1,2.1l0,0c0,1.2-0.9,2.1-2.1,2.1h-18c-1.1,0-2.1-0.9-2.1-2.1l0,0C138.9,67.4,139.8,66.5,141,66.5L141,66.5z M154.7,63.7c0.4-6.7,2.7-10,5.7-12.7c4.5-4.2,6.6-7.7,6.7-14.9c0.6-2.6,0.8-5.3,0.8-8c0-0.7,0-1.5-0.1-2.2c1.8,1,3.2,2.4,4.1,4.2c2.6,5.4,2.3,10.7-0.8,15.8c-4.5,7.5-13.1,6.2-14,17.9C156.9,65.7,154.6,65.7,154.7,63.7L154.7,63.7z M150,94.5c7.4,0,13.5-6.1,13.5-13.7c0-3.5-1.3-6.7-3.4-9.1c-0.3,0.1-0.7,0.2-1,0.2h-9h-9c-0.4,0-0.7-0.1-1-0.2c-2.1,2.4-3.4,5.6-3.4,9.1C136.5,88.4,142.6,94.5,150,94.5L150,94.5z M156.7,80.8c0,3.8-3,6.8-6.7,6.8c-3.7,0-6.7-3.1-6.7-6.8c0-3.8,3-6.8,6.7-6.8C153.7,74,156.7,77.1,156.7,80.8L156.7,80.8z M145.3,63.7c-0.3-9.1-2.1-11.9-7.6-18.8c-3.6-4.5-5.8-10.1-2.6-16.7c-4.6,2.5-6.9,6.6-7.1,10.8c-0.3,6.1,3.3,9.8,7.7,13.1c3.5,2.6,6.8,4.9,7.2,11.7C143,65.7,145.4,65.6,145.3,63.7L145.3,63.7z M149.2,63.5c-0.1-7.2-1.2-13.7-2.9-20.6c-1.1-4.4-2.2-8.2-2.4-12.9c-0.2-4.7,1-10.2,3.2-14.8c0.1-1.4,0-2.8-0.3-4.1c-6.1,2.6-10.2,9.8-10.4,16.9c-0.5,16.5,9.9,17.1,10.5,35.6C146.9,65.7,149.2,65.6,149.2,63.5L149.2,63.5z M151,63.7c0.2-5.3,1.5-10.5,3.2-15.6c1.9-5.9,4.5-11.8,4.8-18.1c0.1-1.5,0-3.2-0.2-4.8c0.7-4,0.6-8.9-0.4-12.8c4.9,3.2,8.1,9.5,8.1,15.6c0,19.5-12.4,20.3-13.2,35.7C153.3,65.4,151,65.8,151,63.7L151,63.7z M134.7,72.9c-2-0.3-3.5-2-3.7-4c-0.2-2,1-3.9,2.9-4.6c1.7-0.6,2.9-0.3,4.2,0.6c1.1,0.7,2.2,0.5,1.7-1.1c-0.7-2.5-2.6-4.4-5.1-5.1c-2.9-0.8-6.1,0.5-7.8,2.7c-1.8,2.3-2.2,6.1-0.4,8.8C128.3,72.8,131.7,74,134.7,72.9L134.7,72.9z M141.5,64.6c0.6-9.5-10.5-15.2-18.2-9c-4.4,3.5-5.5,10.5-1.1,15.4c1.9,2.1,4.5,3.2,7.2,3.2c-1.7-0.6-3.1-1.7-4.2-3.3c-2.1-3.1-1.8-7.5,0.5-10.4c2.1-2.7,5.9-4.1,9.2-3.2c3.3,0.9,5.7,3.8,6.2,7.3C141.3,64.8,141.5,64.8,141.5,64.6L141.5,64.6z M155.8,38.1c-0.2-5.9,0.8-9.5,1.6-14.3c1.8-10.4-2.2-22.2-14.3-22.3c5.1,3.7,5.9,10,5,15.7c-0.6,3.6-1.6,6.9-2.2,10.4c-0.5,2.9-0.6,4.6-0.1,7.5c0.5,2.8,1.5,5.9,2.4,9.8c0.2,0.8,1,1,0.9-0.1c-0.2-6.6,0.6-11.7,1.5-15.6c0.2-1,1.3-0.8,1.2,0.3c-1,6.8-1.1,11.6-0.3,18.3c0.1,0.9,0.7,1.2,0.9,0.4C153.6,43.8,155,40.8,155.8,38.1L155.8,38.1z M165.3,72.9c2-0.3,3.5-2,3.7-4c0.2-2-1-3.9-2.9-4.6c-1.7-0.6-2.9-0.3-4.2,0.6c-1.1,0.7-2.2,0.5-1.7-1.1c0.7-2.5,2.6-4.4,5.1-5.1c2.9-0.8,6.1,0.5,7.8,2.7c1.8,2.3,2.2,6.1,0.4,8.8C171.7,72.8,168.3,74,165.3,72.9L165.3,72.9z M158.5,64.6c-0.6-9.5,10.5-15.2,18.2-9c4.4,3.5,5.5,10.5,1.1,15.4c-1.9,2.1-4.5,3.2-7.2,3.2c1.7-0.6,3.1-1.7,4.2-3.3c2.1-3.1,1.8-7.5-0.5-10.4c-2.1-2.7-5.9-4.1-9.2-3.2c-3.3,0.9-5.7,3.8-6.2,7.3C158.7,64.8,158.5,64.8,158.5,64.6L158.5,64.6z"/><path fill="#C78330" d="M170.8,71.6c3.8-2.7,3.7-7.8,1.1-10.5c-2.9-3.1-8-2.7-10.1,1C167.2,59.5,173.4,65.6,170.8,71.6L170.8,71.6z M163.8,55.3c8.4-2.6,16.7,6.1,13.6,14.7C184.3,60.2,173.6,49.6,163.8,55.3L163.8,55.3z M162.2,51.9c3.1-2.5,5.8-4,8-7.6c1.7-2.8,2.5-5.8,2.3-8.7c-0.2-3-1.3-6-3.4-8.1c-0.4-0.4-0.6-0.3-0.5,0.3c0.3,2.4,0.5,5.6,0.4,7.7c-0.2,7.1-2.1,11.1-7.1,15.9C161.3,51.8,161.3,52.6,162.2,51.9L162.2,51.9z M155.5,51.6c0.5-1,1.1-1.9,1.8-2.9c1.9-2.8,4-5.4,5.5-8.6c1.9-4.1,2.6-8.4,2.6-12.9c0-3.9-1.4-8.5-5.2-12.6c-0.3-0.4-0.9-0.3-0.7,0.3c1.3,5.9,1.5,11.2,1.3,14.4c-0.3,6.5-2.9,12.4-4.9,18.5c-0.4,1.2-0.7,2.3-1.1,3.5C154.8,51.9,155.3,52.1,155.5,51.6L155.5,51.6z M155.2,37.9c-0.1-3.3,0.2-7.1,0.8-10.4c0.3-1.6,0.6-3.2,0.9-4.8c0.9-5.5-0.2-12.4-4.1-16.7c-1.2-1.4-3.3-2.9-6.2-3.7c-0.5-0.1-0.8,0.4-0.6,0.6c3.6,3.1,4.6,9.3,3.9,13.7c-0.5,3.5-1.1,6.9-1.8,10.4c-0.3,1.4-0.5,3.5-0.6,5.5c-0.1,2.8,1.3,2.6,1.6,0.8c0.3-2.1,0.4-2.8,0.7-4.1c0.7-2.9,3-2.1,2.7,0.9c-0.4,3.2-0.6,5.2-0.5,8.4c0,3,1.6,4.1,2.3,2.2C154.6,39.9,155.1,38.3,155.2,37.9L155.2,37.9z M145.4,13.9c-4.3,3.1-7,8-7.1,13.2c-0.1,4.1,0.4,7.2,1.7,10.4c1.9,4.8,4.8,8.7,6.4,13.9c0.2,0.7,1,0.4,0.8-0.2c-0.4-2.5-1.3-6.4-2-8.9c-1.1-4.5-2.2-8.5-2.4-13.2c-0.4-7.5,2.6-12,3.2-14.8C146.2,13.8,145.8,13.6,145.4,13.9L145.4,13.9z M133.6,30c-3.8,3.1-4.5,8.2-3.3,12.1c1,3.3,3.6,5.7,6.7,8c2.2,1.7,4.2,3.2,5.6,5.3c0.3,0.5,0.8,0.3,0.7-0.2c-1-3.4-3-6-6.2-10.1C133.7,40.9,131.8,34.9,133.6,30L133.6,30z M141.9,66.8c-2,0-1.9,2.6,0,2.6H159c1.8,0,1.8-2.6,0-2.6H141.9L141.9,66.8z M157.4,72.4c-1.4,0.1-2.5,1.1-1.2,3.1c2.1,3.1,2.8,8.1-1.4,11.2c-3.6,2.7-8.2,2.1-10.7-0.8c-2.7-3.2-2.2-7.7,0.3-10.5c1.1-1.2,0.4-2.6-1.2-2.6c-1.3,0-2.8,0.3-3.9,2.1c-1.1,1.8-1.5,4.3-1.5,6.2c0.2,6.1,4.9,12.1,12,12.1c7.9,0,15.9-8.3,11.2-18.4C159.9,72.3,158.7,72.2,157.4,72.4L157.4,72.4z M122.1,63.8c0.9-3.4,3.6-6.4,7-7.4c3.6-1.1,7.6,0,10.3,2.8c0.3,0.3,0.6,0.1,0.4-0.3c-1.8-3.4-5.5-5.3-9.4-5.1C125.2,54.2,121.6,58.7,122.1,63.8L122.1,63.8z M128.7,69.3c-0.1-0.8,0-1.6,0.2-2.4c0.8-2.6,3.2-4.4,5.8-4.3c1.4,0.1,2.4,0.5,3.4,1.2c0.4,0.3,0.7,0,0.6-0.4c-0.3-1.2-1.1-2.2-2.1-3c-1.8-1.4-4.6-1.5-6.6-0.3c-2.1,1.2-3.4,4-2.9,6.4C127.4,67.5,128,68.5,128.7,69.3L128.7,69.3z"/><path fill="#FFBC36" d="M156.4,90.2c5.2-3.3,6.7-10.1,3.7-16c-1.3-2.5-4.1-1.4-2.6,0.6C160.3,78.6,160.8,85,156.4,90.2L156.4,90.2z M154.3,87.8c-6.2,3.3-13.2-0.2-12.8-7.1c0.1-1.9,0.9-3.9,2.1-5.4c1.4-1.5-0.3-2.5-1.7-1.3c-1.4,1.2-2.7,3.8-2.6,6.9C139.6,89.5,149,93.3,154.3,87.8L154.3,87.8z M142.8,67c-0.9,0-1,1.1,0,1.1h15.8c0.8,0,0.7,0.8,0.3,1c1.5,0,1.3-2.2,0-2.2H142.8L142.8,67z M165.4,60c2-0.6,4.2-0.2,5.7,1.3c1.5,1.4,2.2,3.4,1.9,5.3c-0.1,0.5-0.3,0.4-0.4,0.1c-1-3.3-3.8-5.8-7.2-6.4C165.3,60.3,165.3,60,165.4,60L165.4,60z M170,54.4c5,0,8.5,3.5,9.1,9c0,0.3-0.3,0.5-0.4,0.1c-1.5-5-5-8-8.8-8.9C169.7,54.7,169.7,54.4,170,54.4L170,54.4z M170,40.1c1.3-4.5,0.6-8.2-1.1-11.7c-0.1-0.2,0.1-0.5,0.3-0.2c2.4,3.7,3.3,7.9,2,12.1C171,41.2,169.7,41.1,170,40.1L170,40.1z M161.2,41.2c0.4-0.6,0.7-1.3,1-1.9c1.8-3.9,2.5-8,2.5-12.2c0-2-0.9-7.1-3.9-11.4c-0.2-0.3-0.6-0.1-0.5,0.2c1.9,3.7,3,9.2,2.8,13.4c-0.2,4.1-1.3,7.9-2.5,11.6C160.4,41.4,160.8,41.9,161.2,41.2L161.2,41.2z M133.2,60.6c1.4,0,3,1,3.9,2c0.3,0.3,0.8,0,0.4-0.7c-0.6-1-2.1-2.1-4.2-2C132.6,59.9,132.6,60.6,133.2,60.6L133.2,60.6z M137.4,56.3c-2.5-2-5.5-2.6-8.5-1.6c-0.6,0.2-0.3,0.4,0.1,0.3c3-0.4,5.7,0.2,8,1.8C137.6,57.3,137.9,56.8,137.4,56.3L137.4,56.3z M131.4,35.2c-0.7,4.9,1.5,8.9,5.3,11.7c0.6,0.4,0.9-0.2,0.6-0.6c-2.6-2.9-4.8-7.2-4.9-11.2C132.4,34.2,131.6,33.8,131.4,35.2L131.4,35.2z M142.4,18.7c-1.5,2.8-2.2,5.8-2.3,8.1c-0.1,4.8,0.6,8.2,2.6,12.2c0.2,0.5,0.7,0.2,0.6-0.2c-0.8-3.2-1.4-6.4-1.6-9.8c-0.2-3.4,0.6-7.3,1.8-10.1C144.1,17.6,143.4,16.9,142.4,18.7L142.4,18.7z M148.3,4.1c6.1,5.3,3.9,13.6,2.9,20.2c-0.2,1.5,0.5,2.3,1.3,2.4c0.8,0.1,1,0.9,0.9,1.7c-0.1,1.2-0.5,4.1-0.6,7.5c0,1.3,1.2,1.2,1.2,0c0.4-6,1.3-10.4,1.4-10.9c1.4-7.7,0.3-17.5-6.8-21.5C147.8,3.2,147.9,3.8,148.3,4.1L148.3,4.1z"/><polygon fill="#00703C" points="0,145 8,137 16,145 8,153 0,145 "/><polygon fill="#C20000" points="284,145 292,137 300,145 292,153 284,145 "/><path d="M24,131.6h12v4h-7.6v7.4h6.1v4h-6.1v8.6H36v4H24V131.6L24,131.6z M38.6,131.6H43v24h7.3v4H38.6V131.6L38.6,131.6z M52.4,131.6h4.4v28h-4.4V131.6L52.4,131.6z M66.4,160c-2.1,0-3.8-0.6-4.9-1.8c-1.1-1.2-1.7-3-1.7-5.2v-14.7c0-2.3,0.6-4,1.7-5.2c1.1-1.2,2.8-1.8,4.9-1.8c2.1,0,3.8,0.6,4.9,1.8c1.1,1.2,1.7,3,1.7,5.2v2.4h-4.2V138c0-1.8-0.8-2.8-2.3-2.8c-1.5,0-2.3,0.9-2.3,2.8v15.3c0,1.8,0.8,2.7,2.3,2.7c1.5,0,2.3-0.9,2.3-2.7v-5.5h-2.2v-4H73v9.2c0,2.3-0.6,4-1.7,5.2C70.2,159.4,68.5,160,66.4,160L66.4,160z M75.8,131.6h4.4v28h-4.4V131.6L75.8,131.6z M83.5,131.6h6.7c2.3,0,3.9,0.5,5,1.6c1,1.1,1.6,2.7,1.6,4.9v1.1c0,1.4-0.2,2.6-0.7,3.5c-0.5,0.9-1.2,1.6-2.1,2v0.1c2.2,0.7,3.3,2.7,3.3,5.8v2.4c0,2.2-0.6,3.8-1.7,4.9c-1.1,1.1-2.8,1.7-5,1.7h-6.9V131.6L83.5,131.6z M89.7,143c0.9,0,1.5-0.2,2-0.7c0.4-0.5,0.7-1.2,0.7-2.3v-1.6c0-1-0.2-1.7-0.5-2.2c-0.4-0.5-0.9-0.7-1.7-0.7h-2.1v7.4H89.7L89.7,143z M90.5,155.6c0.8,0,1.4-0.2,1.7-0.6c0.4-0.4,0.6-1.1,0.6-2.1v-2.4c0-1.3-0.2-2.2-0.7-2.7c-0.4-0.5-1.2-0.7-2.2-0.7h-2v8.6H90.5L90.5,155.6z M99.8,131.6h4.4v28h-4.4V131.6L99.8,131.6z M107.5,131.6h4.4v24h7.3v4h-11.7V131.6L107.5,131.6z M121.3,131.6h4.4v28h-4.4V131.6L121.3,131.6z M132.4,135.6h-4.6v-4h13.7v4h-4.6v24h-4.4V135.6L132.4,135.6z M147.8,147.7l-5.3-16.1h4.7l3,10.3h0.1l3-10.3h4.3l-5.3,16.1v11.9h-4.4V147.7L147.8,147.7z M169.5,135.6h-4.6v-4h13.7v4h-4.6v24h-4.4V135.6L169.5,135.6z M180.6,131.6h12v4h-7.6v7.4h6.1v4h-6.1v8.6h7.6v4h-12V131.6L180.6,131.6z M201,160c-2.1,0-3.8-0.6-4.9-1.8c-1.1-1.2-1.6-3-1.6-5.2v-1.6h4.2v1.9c0,1.8,0.8,2.7,2.3,2.7c0.7,0,1.3-0.2,1.7-0.7c0.4-0.4,0.6-1.2,0.6-2.1c0-1.2-0.3-2.2-0.8-3.1c-0.5-0.9-1.5-2-3-3.2c-1.8-1.6-3.1-3-3.8-4.3c-0.7-1.3-1.1-2.8-1.1-4.4c0-2.2,0.6-3.9,1.7-5.1c1.1-1.2,2.8-1.8,4.9-1.8c2.1,0,3.7,0.6,4.8,1.8c1.1,1.2,1.6,3,1.6,5.2v1.2h-4.2V138c0-1-0.2-1.7-0.6-2.1c-0.4-0.4-0.9-0.7-1.6-0.7c-1.5,0-2.2,0.9-2.2,2.7c0,1,0.3,2,0.8,2.8c0.5,0.9,1.5,1.9,3,3.2c1.8,1.6,3.1,3.1,3.8,4.4c0.7,1.3,1,2.8,1,4.6c0,2.3-0.6,4.1-1.7,5.3C204.9,159.4,203.2,160,201,160L201,160z M213.7,135.6h-4.6v-4h13.7v4h-4.6v24h-4.4V135.6L213.7,135.6z M234.7,131.6h6l4.6,28h-4.4l-0.8-5.6v0.1h-5l-0.8,5.5h-4.1L234.7,131.6L234.7,131.6z M239.5,150.3l-2-13.8h-0.1l-1.9,13.8H239.5L239.5,150.3z M247.4,131.6h6.5c2.2,0,3.8,0.6,4.9,1.8c1.1,1.2,1.6,2.9,1.6,5.2v2.8c0,2.3-0.5,4-1.6,5.2c-1.1,1.2-2.7,1.8-4.9,1.8h-2.1v11.4h-4.4V131.6L247.4,131.6z M253.9,144.2c0.7,0,1.3-0.2,1.6-0.6c0.4-0.4,0.5-1.1,0.5-2v-3.3c0-1-0.2-1.6-0.5-2c-0.4-0.4-0.9-0.6-1.6-0.6h-2.1v8.6H253.9L253.9,144.2z M262.9,131.6h6.5c2.2,0,3.8,0.6,4.9,1.8c1.1,1.2,1.6,2.9,1.6,5.2v2.8c0,2.3-0.5,4-1.6,5.2c-1.1,1.2-2.7,1.8-4.9,1.8h-2.1v11.4h-4.4V131.6L262.9,131.6z M269.4,144.2c0.7,0,1.3-0.2,1.6-0.6c0.4-0.4,0.5-1.1,0.5-2v-3.3c0-1-0.2-1.6-0.5-2c-0.4-0.4-0.9-0.6-1.6-0.6h-2.1v8.6H269.4L269.4,144.2z M47,105.6h8.3v2.9h-5.2v5.6h4.1v2.9h-4.1v8.7H47V105.6L47,105.6z M56.8,105.6h4.7c1.6,0,2.8,0.4,3.5,1.1c0.7,0.8,1.1,1.9,1.1,3.5v1.2c0,2.1-0.7,3.4-2.1,3.9v0.1c0.8,0.2,1.3,0.7,1.6,1.4s0.5,1.6,0.5,2.8v3.5c0,0.6,0,1,0.1,1.4c0,0.4,0.1,0.7,0.3,1h-3.2c-0.1-0.3-0.2-0.6-0.2-0.9c0-0.3-0.1-0.8-0.1-1.5v-3.7c0-0.9-0.1-1.6-0.4-1.9c-0.3-0.4-0.8-0.5-1.5-0.5h-1.1v8.6h-3.1V105.6L56.8,105.6z M61.1,114.2c0.6,0,1.1-0.2,1.4-0.5c0.3-0.3,0.5-0.9,0.5-1.6v-1.5c0-0.7-0.1-1.2-0.4-1.6c-0.3-0.3-0.7-0.5-1.2-0.5h-1.4v5.7H61.1L61.1,114.2z M68.3,105.6h8.6v2.9h-5.4v5.3h4.3v2.9h-4.3v6.1h5.4v2.9h-8.6V105.6L68.3,105.6z M78.7,105.6h3.9l3.1,12h0.1v-12h2.8v20h-3.2L81.5,111h-0.1v14.6h-2.8V105.6L78.7,105.6z M95.3,125.9c-1.5,0-2.7-0.4-3.4-1.3c-0.8-0.9-1.2-2.1-1.2-3.6v-10.7c0-1.6,0.4-2.8,1.2-3.6c0.8-0.9,1.9-1.3,3.4-1.3c1.5,0,2.7,0.4,3.4,1.3c0.8,0.9,1.2,2.1,1.2,3.6v2.1h-3V110c0-1.2-0.5-1.9-1.6-1.9c-1,0-1.6,0.6-1.6,1.9v11.2c0,1.2,0.5,1.8,1.6,1.8c1,0,1.6-0.6,1.6-1.8v-3.1h3v2.8c0,1.6-0.4,2.8-1.2,3.6C97.9,125.5,96.8,125.9,95.3,125.9L95.3,125.9z M101.8,105.6h3.1v8.1h3.4v-8.1h3.1v20h-3.1v-9h-3.4v9h-3.1V105.6L101.8,105.6z M118.4,105.6h8.3v2.9h-5.2v5.6h4.1v2.9h-4.1v8.7h-3.1V105.6L118.4,105.6z M132.7,125.9c-1.5,0-2.7-0.4-3.5-1.3c-0.8-0.9-1.2-2.1-1.2-3.7v-10.5c0-1.6,0.4-2.8,1.2-3.7c0.8-0.9,2-1.3,3.5-1.3c1.5,0,2.7,0.4,3.5,1.3c0.8,0.9,1.2,2.1,1.2,3.7v10.5c0,1.6-0.4,2.8-1.2,3.7C135.4,125.4,134.3,125.9,132.7,125.9L132.7,125.9z M132.7,123c1.1,0,1.6-0.7,1.6-2v-10.9c0-1.3-0.5-2-1.6-2c-1.1,0-1.6,0.7-1.6,2v10.9C131.1,122.4,131.6,123,132.7,123L132.7,123z M139.6,105.6h4.7c1.6,0,2.8,0.4,3.5,1.1c0.7,0.8,1.1,1.9,1.1,3.5v1.2c0,2.1-0.7,3.4-2.1,3.9v0.1c0.8,0.2,1.3,0.7,1.6,1.4c0.3,0.7,0.5,1.6,0.5,2.8v3.5c0,0.6,0,1,0.1,1.4c0,0.4,0.1,0.7,0.3,1h-3.2c-0.1-0.3-0.2-0.6-0.2-0.9c0-0.3-0.1-0.8-0.1-1.5v-3.7c0-0.9-0.1-1.6-0.4-1.9c-0.3-0.4-0.8-0.5-1.5-0.5h-1.1v8.6h-3.1V105.6L139.6,105.6z M143.9,114.2c0.6,0,1.1-0.2,1.4-0.5c0.3-0.3,0.5-0.9,0.5-1.6v-1.5c0-0.7-0.1-1.2-0.4-1.6c-0.3-0.3-0.7-0.5-1.2-0.5h-1.4v5.7H143.9L143.9,114.2z M151.1,105.6h8.6v2.9h-5.4v5.3h4.3v2.9h-4.3v6.1h5.4v2.9h-8.6V105.6L151.1,105.6z M161.5,105.6h3.1v20h-3.1V105.6L161.5,105.6z M171.4,125.9c-1.5,0-2.7-0.4-3.5-1.3c-0.8-0.9-1.2-2.1-1.2-3.7v-10.5c0-1.6,0.4-2.9,1.2-3.7c0.8-0.9,2-1.3,3.5-1.3c1.5,0,2.7,0.4,3.5,1.3c0.8,0.9,1.2,2.1,1.2,3.7v1.7h-3v-1.9c0-1.3-0.5-2-1.6-2c-1.1,0-1.6,0.7-1.6,2v10.9c0,1.3,0.5,1.9,1.6,1.9c1.1,0,1.6-0.6,1.6-1.9v-3.9h-1.6v-2.9h4.5v6.5c0,1.6-0.4,2.9-1.2,3.7C174.1,125.5,172.9,125.9,171.4,125.9L171.4,125.9z M178.1,105.6h3.9l3.1,12h0.1v-12h2.8v20h-3.2L181,111h-0.1v14.6h-2.8V105.6L178.1,105.6z M194.9,105.6h3.1v17.1h5.2v2.9h-8.3V105.6L194.9,105.6z M204.7,105.6h8.6v2.9h-5.4v5.3h4.3v2.9h-4.3v6.1h5.4v2.9h-8.6V105.6L204.7,105.6z M219.5,125.9c-1.5,0-2.7-0.4-3.5-1.3c-0.8-0.9-1.2-2.1-1.2-3.7v-10.5c0-1.6,0.4-2.9,1.2-3.7c0.8-0.9,2-1.3,3.5-1.3c1.5,0,2.7,0.4,3.5,1.3c0.8,0.9,1.2,2.1,1.2,3.7v1.7h-3v-1.9c0-1.3-0.5-2-1.6-2c-1.1,0-1.6,0.7-1.6,2v10.9c0,1.3,0.5,1.9,1.6,1.9c1.1,0,1.6-0.6,1.6-1.9v-3.9h-1.6v-2.9h4.5v6.5c0,1.6-0.4,2.9-1.2,3.7C222.2,125.5,221,125.9,219.5,125.9L219.5,125.9z M226.2,105.6h3.1v20h-3.1V105.6L226.2,105.6z M236.3,125.9c-1.5,0-2.7-0.4-3.5-1.3c-0.8-0.9-1.2-2.1-1.2-3.7v-10.5c0-1.6,0.4-2.8,1.2-3.7c0.8-0.9,2-1.3,3.5-1.3c1.5,0,2.7,0.4,3.5,1.3c0.8,0.9,1.2,2.1,1.2,3.7v10.5c0,1.6-0.4,2.8-1.2,3.7C239,125.4,237.8,125.9,236.3,125.9L236.3,125.9z M236.3,123c1.1,0,1.6-0.7,1.6-2v-10.9c0-1.3-0.5-2-1.6-2c-1.1,0-1.6,0.7-1.6,2v10.9C234.6,122.4,235.2,123,236.3,123L236.3,123z M243.1,105.6h3.9l3.1,12h0.1v-12h2.8v20h-3.2L246,111h-0.1v14.6h-2.8V105.6L243.1,105.6z"/></svg>