<svg xmlns="http://www.w3.org/2000/svg" viewBox="0 0 78 78"><path fill="#C20000" d="M73,37H61V25.5l-7.9,7.9C55.6,37.3,57,42,57,47c0,7.2-2.9,13.7-7.6,18.4h0C44.7,70.1,38.2,73,31,73c-7.2,0-13.7-2.9-18.4-7.6l0,0C7.9,60.7,5,54.2,5,47c0-7.2,2.9-13.7,7.6-18.4v0C17.3,23.9,23.8,21,31,21c5,0,9.7,1.4,13.6,3.9l7.9-7.9H41V5h32V37L73,37z M40.9,37.1c-2.5-2.5-6-4.1-9.9-4.1c-3.9,0-7.4,1.6-9.9,4.1l0,0c-2.5,2.5-4.1,6-4.1,9.9s1.6,7.4,4.1,9.9c2.5,2.5,6,4.1,9.9,4.1c3.9,0,7.4-1.6,9.9-4.1l0,0c2.5-2.5,4.1-6,4.1-9.9C45,43.1,43.4,39.6,40.9,37.1L40.9,37.1z"/></svg>